# xmcd
#
# Track frame offsets: 
#        150
#        17075
#        45594
#        62053
#        85331
#        104951
#        127168
#        145470
#        164611
#        184024
#        202718
#        215106
#        228254
#        244697
#        259511
#        272011
#
# Disc length: 3909 seconds
#
# Revision: 1
# Processed by: cddbd v1.5.2PL0 Copyright (c) Steve Scherf et al.
# Submitted via: ExactAudioCopy v0.99pb4
#
DISCID=ee0f4310
DTITLE=Γιάννης Λεμπέσης - 48   "αδέσποτα"  ρεμπέτικα και παραδοσιακά τ
DTITLE=ραγούδια [CD3]
DYEAR=2000
DGENRE=Rebetika
TTITLE0=Με τα ρούχα μου μαλώνω
TTITLE1=Στό' πα και στο ξαναλέω
TTITLE2=Τη δόλια τη μανούλα μου
TTITLE3=Είμαι μεμέτης μερακλής
TTITLE4=Μαριωρή βρε Μαριωρή
TTITLE5=Μπουρνοβαλιός μανές
TTITLE6=Βάρα με με το στιλέτο
TTITLE7=Τα παιδιά της γειτονιάς σου
TTITLE8=Ζεϊμπέκικο Μινόρε
TTITLE9=Δε μου λέτε
TTITLE10=Τι σε μέλει εσένανε
TTITLE11=Πολίτικο ζεϊμπέκικο
TTITLE12=Πολίτικο χασάπικο
TTITLE13=Κάηκε κι ένα σχολείο
TTITLE14=Η αγάπη θέλει χάδι
TTITLE15=Παραδοσιακές διαδρομές
EXTD=
EXTT0=
EXTT1=
EXTT2=
EXTT3=
EXTT4=
EXTT5=
EXTT6=
EXTT7=
EXTT8=
EXTT9=
EXTT10=
EXTT11=
EXTT12=
EXTT13=
EXTT14=
EXTT15=
PLAYORDER=
